<svg width="27" height="28" viewBox="0 0 27 28" fill="none" xmlns="http://www.w3.org/2000/svg">
<g id="Group">
<path id="Vector" d="M26 23.8109V14.0284C26.0001 13.3478 25.8612 12.6743 25.5919 12.0493C25.3226 11.4242 24.9285 10.8608 24.4337 10.3934L15.2175 1.68336C14.7533 1.24452 14.1388 1 13.5 1C12.8612 1 12.2467 1.24452 11.7825 1.68336L2.56625 10.3934C2.07153 10.8608 1.67744 11.4242 1.40812 12.0493C1.1388 12.6743 0.999928 13.3478 1 14.0284L1 23.8109C1 24.4739 1.26339 25.1098 1.73223 25.5786C2.20107 26.0475 2.83696 26.3109 3.5 26.3109H23.5C24.163 26.3109 24.7989 26.0475 25.2678 25.5786C25.7366 25.1098 26 24.4739 26 23.8109Z" stroke="white" stroke-width="2" stroke-linecap="round" stroke-linejoin="round"/>
</g>
</svg>
