<svg width="414" height="28" viewBox="0 0 414 28" fill="none" xmlns="http://www.w3.org/2000/svg">
<path fill-rule="evenodd" clip-rule="evenodd" d="M-202 6.25L-195.855 4.75C-189.71 3.25 -178.957 0 -166.667 0C-154.377 0 -143.623 3.25 -131.333 4.75C-119.043 6.25 -108.29 6.25 -96 7.75C-83.7101 9.5 -72.9565 12.5 -60.6667 13C-48.3768 13.5 -37.6232 11.5 -25.3333 9.5C-13.0435 7.25 -2.28986 5.25 10 6.75C22.2899 8.25 33.0435 13.5 45.3333 13C57.6232 12.5 68.3768 6.25 80.6667 5.75C92.9565 5.25 103.71 10.5 116 14.5C128.29 18.75 139.043 21.75 151.333 20.25C163.623 18.75 174.377 12.5 186.667 9C198.957 5.25 209.71 4.25 222 4.25C234.29 4.25 245.043 5.25 257.333 7.25C269.623 9.5 280.377 12.5 292.667 12.5C304.957 12.5 315.71 9.5 328 11C340.29 12.5 351.043 18.75 363.333 18.25C375.623 17.75 386.377 10.5 398.667 10.5C410.957 10.5 421.71 17.75 427.855 21.25L434 25V28H427.855C421.71 28 410.957 28 398.667 28C386.377 28 375.623 28 363.333 28C351.043 28 340.29 28 328 28C315.71 28 304.957 28 292.667 28C280.377 28 269.623 28 257.333 28C245.043 28 234.29 28 222 28C209.71 28 198.957 28 186.667 28C174.377 28 163.623 28 151.333 28C139.043 28 128.29 28 116 28C103.71 28 92.9565 28 80.6667 28C68.3768 28 57.6232 28 45.3333 28C33.0435 28 22.2899 28 10 28C-2.28986 28 -13.0435 28 -25.3333 28C-37.6232 28 -48.3768 28 -60.6667 28C-72.9565 28 -83.7101 28 -96 28C-108.29 28 -119.043 28 -131.333 28C-143.623 28 -154.377 28 -166.667 28C-178.957 28 -189.71 28 -195.855 28H-202V6.25Z" fill="#0065A8"/>
</svg>
