<svg xmlns="http://www.w3.org/2000/svg" width="30" height="30" viewBox="0 0 30 30" fill="none">
  <path d="M27.5 24.9998V15.2173C27.5001 14.5367 27.3612 13.8633 27.0919 13.2382C26.8226 12.6132 26.4285 12.0497 25.9337 11.5823L16.7175 2.87232C16.2533 2.43348 15.6388 2.18896 15 2.18896C14.3612 2.18896 13.7467 2.43348 13.2825 2.87232L4.06625 11.5823C3.57153 12.0497 3.17744 12.6132 2.90812 13.2382C2.6388 13.8633 2.49993 14.5367 2.5 15.2173V24.9998C2.5 25.6629 2.76339 26.2987 3.23223 26.7676C3.70107 27.2364 4.33696 27.4998 5 27.4998H25C25.663 27.4998 26.2989 27.2364 26.7678 26.7676C27.2366 26.2987 27.5 25.6629 27.5 24.9998Z" stroke="white" stroke-width="2" stroke-linecap="round" stroke-linejoin="round"/>
</svg>
