<svg width="30" height="71" viewBox="0 0 30 71" fill="none" xmlns="http://www.w3.org/2000/svg">
<g filter="url(#filter0_d_120_68)">
<path fill-rule="evenodd" clip-rule="evenodd" d="M14.5046 0.853789C14.2059 0.859171 14.0145 0.921329 13.8854 1.05494C13.7826 1.1613 13.3245 1.95338 12.8674 2.81522C8.14382 11.7201 5.25441 22.1973 4.85853 31.8562C4.79215 33.4767 4.88324 37.2351 5.04203 39.4278C5.53058 46.1719 6.79672 52.6416 8.61951 57.7073C9.197 59.3123 9.54218 59.8517 10.3472 60.4069C11.3346 61.088 11.6595 61.1284 15.5339 61.0516C19.3862 60.9754 19.6199 60.9367 20.6061 60.213C21.3727 59.6503 21.6973 59.0916 22.2415 57.3983C24.247 51.1584 25.3091 43.3146 25.2575 35.125C25.2357 31.6696 25.0647 29.6172 24.5137 26.197C23.3864 19.2009 21.0492 12.0909 17.7285 5.55631C16.8896 3.90568 15.3757 1.26992 15.13 1.03252C14.9966 0.903633 14.8033 0.848406 14.5046 0.853789ZM16.2336 6.74369C19.4005 13.0078 21.6171 19.8182 22.7096 26.6415C23.2145 29.7943 23.4022 32.0863 23.4147 35.2491C23.4457 43.0949 22.4057 50.7917 20.5122 56.7317C20.1168 57.972 20.0154 58.199 19.7197 58.505C19.2153 59.0269 18.8374 59.1423 17.543 59.1699L16.3697 59.1948L16.3109 55.6032L16.252 52.0116L18.3725 51.9668L20.4929 51.9219L20.7192 51.615C21.1503 51.0301 21.1875 51.1082 18.5249 47.0051L16.1154 43.2919L15.8078 24.3442C15.6387 13.923 15.5233 5.41877 15.5513 5.44587C15.5795 5.47303 15.8864 6.05701 16.2336 6.74369ZM13.4053 59.2514C12.1224 59.2838 11.691 59.172 11.1692 58.6715C10.8436 58.3594 10.7487 58.1665 10.3044 56.9157C8.22022 51.0473 6.9324 43.3924 6.71011 35.5501C6.62053 32.3889 6.73412 30.0916 7.13683 26.922C8.01098 20.0419 9.99404 13.1983 12.9668 6.80255C13.2916 6.10376 13.5795 5.50906 13.6067 5.48097C13.6339 5.45281 13.8516 17.5333 14.0905 32.3265L14.5249 59.223L13.4053 59.2514ZM18.4289 17.4448C18.29 17.4229 18.0406 17.4636 17.8747 17.5352C17.6155 17.647 17.5571 17.7074 17.4604 17.9635C17.3985 18.1274 17.373 19.5393 17.4038 21.1012C17.4553 23.7094 17.4782 23.9586 17.6845 24.158C17.9637 24.4278 18.3287 24.4915 18.6934 24.3342C19.25 24.094 19.2788 23.9235 19.2477 21.0574C19.2316 19.5729 19.1798 18.2412 19.1325 18.098C19.0187 17.7529 18.7396 17.4938 18.4289 17.4448ZM18.4023 25.5932C17.6192 25.6073 17.1923 26.5618 17.7347 27.0859C17.8749 27.2215 18.1059 27.3544 18.248 27.3813C18.8409 27.4937 19.4721 26.7454 19.2536 26.189C19.0977 25.7921 18.8032 25.586 18.4023 25.5932ZM17.2844 48.4988C17.8176 49.3249 18.2694 50.0294 18.2883 50.0644C18.3073 50.0992 17.8499 50.1351 17.272 50.144L16.2211 50.1602L16.1963 48.5091C16.1826 47.601 16.2038 46.8892 16.2433 46.9274C16.2828 46.9655 16.7513 47.6727 17.2844 48.4988Z" fill="white"/>
</g>
<defs>
<filter id="filter0_d_120_68" x="0.836617" y="0.853516" width="28.4227" height="69.2261" filterUnits="userSpaceOnUse" color-interpolation-filters="sRGB">
<feFlood flood-opacity="0" result="BackgroundImageFix"/>
<feColorMatrix in="SourceAlpha" type="matrix" values="0 0 0 0 0 0 0 0 0 0 0 0 0 0 0 0 0 0 127 0" result="hardAlpha"/>
<feOffset dy="5"/>
<feGaussianBlur stdDeviation="2"/>
<feComposite in2="hardAlpha" operator="out"/>
<feColorMatrix type="matrix" values="0 0 0 0 0 0 0 0 0 0 0 0 0 0 0 0 0 0 0.57 0"/>
<feBlend mode="normal" in2="BackgroundImageFix" result="effect1_dropShadow_120_68"/>
<feBlend mode="normal" in="SourceGraphic" in2="effect1_dropShadow_120_68" result="shape"/>
</filter>
</defs>
</svg>
