
<svg xmlns="http://www.w3.org/2000/svg" width="49" height="48" viewBox="0 0 49 48" fill="none">
  <g filter="url(#filter0_d_217_153)">
    <path fill-rule="evenodd" clip-rule="evenodd" d="M26.6793 0.27462C26.1028 0.286815 25.7281 0.331943 25.4672 0.420656C25.2595 0.491274 24.3054 1.00816 23.3469 1.56935C13.4427 7.36781 6.93453 14.1117 5.30769 20.2624C5.03483 21.2943 4.87448 23.6803 4.98466 25.0693C5.32382 29.3413 7.1869 33.4161 10.2488 36.5823C11.2189 37.5854 11.8363 37.9181 13.3389 38.2473C15.1819 38.6512 15.805 38.6673 23.2826 38.5047C30.7176 38.3431 31.1717 38.3117 33.1381 37.8227C34.6665 37.4426 35.3424 37.078 36.5431 35.9857C40.9681 31.9609 43.7173 26.9444 44.3499 21.7408C44.6167 19.5452 44.4705 18.2458 43.7138 16.0882C42.1655 11.6747 38.2944 7.22441 32.4753 3.16874C31.0053 2.14428 28.3217 0.51352 27.8692 0.369845C27.6236 0.291847 27.2558 0.262424 26.6793 0.27462ZM29.4867 3.96732C35.0333 7.8556 38.6985 12.119 40.1953 16.4237C40.8869 18.4127 41.044 19.864 40.7853 21.8738C40.1438 26.8594 37.4504 31.7819 33.2682 35.6129C32.3949 36.4128 32.1791 36.56 31.5815 36.7632C30.5623 37.1097 29.8233 37.1942 27.3248 37.2498L25.0602 37.3L25.2678 35.019L25.4754 32.738L29.5682 32.6472L33.661 32.5564L34.1247 32.3547C35.0084 31.9703 35.0731 32.0189 30.3057 29.4892L25.9915 27.2L27.0922 15.1663C27.6978 8.54778 28.2355 3.14609 28.2871 3.16249C28.3389 3.17893 28.8786 3.54108 29.4867 3.96732ZM19.3391 37.4231C16.8624 37.4814 16.0406 37.423 15.079 37.1202C14.4792 36.9314 14.3133 36.8116 13.5685 36.0296C10.0743 32.361 8.27535 27.5336 8.5478 22.5557C8.65766 20.5492 9.08205 19.0857 10.1419 17.0594C12.4426 12.6609 16.8782 8.25299 23.1821 4.10068C23.8709 3.64701 24.4793 3.26057 24.5342 3.24192C24.5892 3.22322 23.929 10.8949 23.0672 20.2901L21.5004 37.3722L19.3391 37.4231ZM32.7631 10.7042C32.4973 10.6944 32.0128 10.7276 31.6864 10.7779C31.1767 10.8566 31.0586 10.8967 30.8493 11.0623C30.7152 11.1683 30.5399 12.0665 30.4597 13.0583C30.3258 14.7144 30.3475 14.8721 30.7275 14.9928C31.2418 15.1561 31.94 15.1859 32.6573 15.0752C33.7521 14.9062 33.8228 14.797 34.019 12.9763C34.1207 12.0332 34.1398 11.1883 34.0615 11.0987C33.8729 10.8827 33.3578 10.7262 32.7631 10.7042ZM31.9835 15.8839C30.4721 15.9159 29.5636 16.5351 30.5626 16.8523C30.821 16.9343 31.2544 17.012 31.5261 17.025C32.6593 17.079 33.9433 16.5848 33.5717 16.2376C33.3065 15.9899 32.757 15.8676 31.9835 15.8839ZM27.7802 30.475C28.7345 30.9844 29.5427 31.4189 29.5761 31.4406C29.6095 31.4622 28.7243 31.4984 27.6092 31.521L25.5814 31.5622L25.6811 30.5135C25.7359 29.9368 25.8404 29.4838 25.9131 29.5068C25.9858 29.5299 26.826 29.9656 27.7802 30.475Z" fill="white"/>
  </g>
  <defs>
    <filter id="filter0_d_217_153" x="0.949524" y="0.271973" width="47.5237" height="47.3291" filterUnits="userSpaceOnUse" color-interpolation-filters="sRGB">
      <feFlood flood-opacity="0" result="BackgroundImageFix"/>
      <feColorMatrix in="SourceAlpha" type="matrix" values="0 0 0 0 0 0 0 0 0 0 0 0 0 0 0 0 0 0 127 0" result="hardAlpha"/>
      <feOffset dy="5"/>
      <feGaussianBlur stdDeviation="2"/>
      <feComposite in2="hardAlpha" operator="out"/>
      <feColorMatrix type="matrix" values="0 0 0 0 0 0 0 0 0 0 0 0 0 0 0 0 0 0 0.57 0"/>
      <feBlend mode="normal" in2="BackgroundImageFix" result="effect1_dropShadow_217_153"/>
      <feBlend mode="normal" in="SourceGraphic" in2="effect1_dropShadow_217_153" result="shape"/>
    </filter>
  </defs>
</svg>
