<svg width="414" height="48" viewBox="0 0 414 48" fill="none" xmlns="http://www.w3.org/2000/svg">
<path fill-rule="evenodd" clip-rule="evenodd" d="M-122 48L-114.232 46.9779C-106.464 45.9557 -92.2222 43.9114 -76.686 37.2675C-62.4444 31.1346 -46.9082 20.4021 -32.6667 17.3357C-17.1304 14.2693 -2.88889 18.3578 12.6473 14.2693C26.8889 10.1807 42.4251 -2.59612 56.6667 0.470315C72.2029 3.53675 86.4444 22.4464 101.981 23.4686C116.222 25.0018 131.758 7.62532 146 5.58103C161.536 3.53675 175.778 16.3135 191.314 25.0018C205.556 33.1789 221.092 37.2675 235.333 36.2453C250.87 35.2232 265.111 29.0903 280.647 28.0682C294.889 27.0461 310.425 31.1346 324.667 28.0682C340.203 25.0018 354.444 14.2693 369.981 6.60318C397.479 -7.45047 407.527 33.1797 414 31.1355V48H406.232C399.758 48 384.222 48 369.981 48C354.444 48 340.203 48 324.667 48C310.425 48 294.889 48 280.647 48C265.111 48 250.87 48 235.333 48C221.092 48 205.556 48 191.314 48C175.778 48 161.536 48 146 48C131.758 48 116.222 48 101.981 48C86.4444 48 72.2029 48 56.6667 48C42.4251 48 26.8889 48 12.6473 48C-2.88889 48 -17.1304 48 -32.6667 48C-46.9082 48 -62.4444 48 -76.686 48C-92.2222 48 -106.464 48 -114.232 48H-122Z" fill="#D3B619"/>
</svg>
